<?xml version="1.0" encoding="utf-8"?>
<!-- Generator: Adobe Illustrator 23.0.1, SVG Export Plug-In . SVG Version: 6.00 Build 0)  -->
<svg version="1.1" xmlns="http://www.w3.org/2000/svg" xmlns:xlink="http://www.w3.org/1999/xlink" x="0px" y="0px"
	 viewBox="0 0 585.3 119.5" style="enable-background:new 0 0 585.3 119.5;" xml:space="preserve">
<style type="text/css">
	.st0{fill:none;stroke:#F4F5F6;stroke-width:4;stroke-linecap:round;stroke-miterlimit:10;}
	.st1{fill-rule:evenodd;clip-rule:evenodd;}
	.st2{fill:none;stroke:#000000;stroke-linecap:round;stroke-linejoin:round;stroke-miterlimit:10;}
	.st3{fill:none;}
	.st4{fill:#010101;}
	.st5{fill:none;stroke:#000000;stroke-width:0.5;stroke-miterlimit:10;}
	.st6{fill:#70CADB;}
	.st7{fill:#E01765;}
	.st8{fill:#E8A723;}
	.st9{fill:#3EB890;}
	.st10{fill:#CC2027;}
	.st11{fill:#361238;}
	.st12{fill:#65863A;}
	.st13{fill:#1A937D;}
	.st14{fill:#F5F7F6;}
	.st15{fill:#FFEBDB;stroke:#000000;stroke-linecap:round;stroke-linejoin:round;stroke-miterlimit:10;}
	.st16{fill:#F5F7F6;stroke:#000000;stroke-linecap:round;stroke-linejoin:round;stroke-miterlimit:10;}
	.st17{fill:#FFFFFF;}
	.st18{fill:url(#SVGID_1_);}
	.st19{fill:url(#SVGID_2_);}
	.st20{fill:url(#SVGID_3_);}
	.st21{fill:url(#SVGID_4_);}
	.st22{fill:url(#SVGID_5_);}
	.st23{fill:url(#SVGID_6_);}
	.st24{fill:url(#SVGID_7_);}
	.st25{fill:#EF0073;}
	.st26{fill:none;stroke:#000000;stroke-miterlimit:10;}
	.st27{fill:url(#SVGID_8_);}
	.st28{fill:url(#SVGID_9_);}
	.st29{fill:url(#SVGID_10_);}
	.st30{fill:url(#SVGID_11_);}
	.st31{fill:url(#SVGID_12_);}
	.st32{fill:url(#SVGID_13_);}
	.st33{fill:url(#SVGID_14_);}
	.st34{fill:url(#SVGID_15_);}
	.st35{fill:url(#SVGID_16_);}
	.st36{fill:url(#SVGID_17_);}
	.st37{fill:#FFFFFF;stroke:#000000;stroke-linecap:round;stroke-linejoin:round;stroke-miterlimit:10;}
	.st38{fill:none;stroke:#EF0073;stroke-linecap:round;stroke-linejoin:round;stroke-miterlimit:10;}
	.st39{fill:#E3F6FF;stroke:#000000;stroke-linecap:round;stroke-linejoin:round;stroke-miterlimit:10;}
	.st40{fill:#FFC7C0;stroke:#000000;stroke-linecap:round;stroke-linejoin:round;stroke-miterlimit:10;}
	.st41{fill:#C6E5D8;stroke:#000000;stroke-linecap:round;stroke-linejoin:round;stroke-miterlimit:10;}
	.st42{fill:url(#SVGID_18_);stroke:#000000;stroke-linecap:round;stroke-linejoin:round;stroke-miterlimit:10;}
	.st43{fill:#FFF792;stroke:#000000;stroke-linecap:round;stroke-linejoin:round;stroke-miterlimit:10;}
	.st44{fill:#F3E8FF;stroke:#000000;stroke-linecap:round;stroke-linejoin:round;stroke-miterlimit:10;}
	.st45{fill:none;stroke:#1EF78F;stroke-width:4;stroke-miterlimit:10;}
	.st46{fill:none;stroke:#1B8DED;stroke-width:4;stroke-miterlimit:10;}
	.st47{fill:none;stroke:#FFE158;stroke-width:4;stroke-miterlimit:10;}
	.st48{fill:#F9EE26;}
	.st49{fill:#0077F9;}
	.st50{fill:#6805D1;}
	.st51{fill:#0AEA7A;}
	.st52{fill:none;stroke:#CCCCCC;stroke-linecap:round;stroke-linejoin:round;stroke-miterlimit:10;}
	.st53{fill:none;stroke:#26CEBF;stroke-linecap:round;stroke-linejoin:round;stroke-miterlimit:10;}
	.st54{fill:none;stroke:#734CF2;stroke-width:3;stroke-miterlimit:10;}
	.st55{fill:none;stroke:#514B4C;stroke-width:0.5;stroke-miterlimit:10;}
	.st56{fill:#514B4C;}
	.st57{fill:none;stroke:#000000;stroke-width:0.5;stroke-linecap:round;stroke-linejoin:round;stroke-miterlimit:10;}
	.st58{fill:#FFFFFF;stroke:#514B4C;stroke-width:0.5;stroke-miterlimit:10;}
	.st59{fill:none;stroke:#142130;stroke-width:0.6;stroke-linecap:round;stroke-linejoin:round;stroke-miterlimit:10;}
	.st60{fill:none;stroke:#000000;stroke-linecap:round;stroke-linejoin:round;stroke-miterlimit:10;stroke-dasharray:2,4;}
	.st61{fill:#C73A63;}
	.st62{fill:#4B4B4B;}
	.st63{fill:#443642;}
	.st64{fill:url(#SVGID_19_);}
	.st65{fill:url(#SVGID_20_);}
	.st66{fill:#EAEAEA;}
	.st67{fill:#D54C3F;}
	.st68{fill:#B63524;}
	.st69{fill:#DE5145;}
	.st70{fill:#EFEFEF;}
	.st71{fill:#C64132;}
	.st72{fill:#E3E3E3;}
	.st73{fill:url(#SVGID_21_);}
	.st74{fill:url(#SVGID_22_);}
	.st75{fill:none;stroke:#000000;stroke-linecap:round;stroke-linejoin:round;stroke-miterlimit:10;stroke-dasharray:0,4;}
	.st76{fill:#FFFFFF;stroke:#000000;stroke-width:0.5;stroke-linecap:round;stroke-linejoin:round;stroke-miterlimit:10;}
	.st77{fill:none;stroke:#000000;stroke-width:0.5;stroke-linecap:round;stroke-linejoin:round;}
	.st78{fill:none;stroke:#000000;stroke-width:0.5;stroke-linecap:round;stroke-linejoin:round;stroke-dasharray:0,3.7862;}
	.st79{fill:none;stroke:#000000;stroke-width:0.5;stroke-linecap:round;stroke-linejoin:round;stroke-dasharray:0,3.8576;}
	.st80{fill:none;stroke:#000000;stroke-width:0.5;stroke-linecap:round;stroke-linejoin:round;stroke-dasharray:0,3.8881;}
	.st81{fill:none;stroke:#000000;stroke-width:0.5;stroke-linecap:round;stroke-linejoin:round;stroke-dasharray:0,3.8182;}
	.st82{fill:none;stroke:#000000;stroke-linecap:round;stroke-linejoin:round;}
	.st83{fill:none;stroke:#000000;stroke-linecap:round;stroke-linejoin:round;stroke-dasharray:0,3.9966;}
	.st84{fill:none;stroke:#000000;stroke-linecap:round;stroke-linejoin:round;stroke-dasharray:0,4.0481;}
	.st85{fill:none;stroke:#000000;stroke-linecap:round;stroke-linejoin:round;stroke-dasharray:0,3.9564;}
	.st86{fill:url(#SVGID_23_);}
	.st87{fill:url(#SVGID_24_);}
	.st88{fill:#DCDDE1;}
	.st89{fill:none;stroke:#142130;stroke-width:0.6;stroke-miterlimit:10;}
	.st90{fill:url(#SVGID_25_);}
	.st91{fill:url(#SVGID_26_);}
	.st92{fill:url(#SVGID_27_);}
	.st93{fill:url(#SVGID_28_);}
	
		.st94{fill:none;stroke:#142130;stroke-width:0.6;stroke-linecap:round;stroke-linejoin:round;stroke-miterlimit:10;stroke-dasharray:3,4;}
	.st95{fill:#FFFFFF;stroke:#142130;stroke-width:0.6;stroke-miterlimit:10;}
	.st96{fill:url(#SVGID_29_);}
	.st97{fill:url(#SVGID_30_);}
	.st98{fill:url(#SVGID_31_);}
	.st99{fill:url(#SVGID_32_);}
	.st100{fill:none;stroke:#142130;stroke-width:0.5;stroke-miterlimit:10;}
	.st101{fill:none;stroke:#000000;stroke-linecap:round;stroke-linejoin:round;stroke-miterlimit:10;stroke-dasharray:0,6;}
	.st102{fill:none;stroke:#142130;stroke-width:0.5;stroke-linecap:round;stroke-linejoin:round;}
	.st103{fill:none;stroke:#142130;stroke-width:0.5;stroke-linecap:round;stroke-linejoin:round;stroke-dasharray:0.9712,1.9424;}
	.st104{fill:none;stroke:#142130;stroke-width:0.5;stroke-linecap:round;stroke-linejoin:round;stroke-dasharray:0.9089,1.8179;}
	.st105{fill:none;stroke:#142130;stroke-width:0.5;stroke-linecap:round;stroke-linejoin:round;stroke-dasharray:1.0251,2.0502;}
	.st106{fill:none;stroke:#142130;stroke-width:0.5;stroke-linecap:round;stroke-linejoin:round;stroke-dasharray:1.0214,2.0429;}
	.st107{fill:none;stroke:#142130;stroke-width:0.5;stroke-linecap:round;stroke-linejoin:round;stroke-dasharray:1.0613,2.1227;}
	.st108{fill:#FFFFFF;stroke:#142130;stroke-width:0.6;stroke-linecap:round;stroke-linejoin:round;stroke-miterlimit:10;}
	.st109{fill:none;stroke:#DCDDE1;stroke-width:0.6;stroke-linecap:round;stroke-linejoin:round;stroke-miterlimit:10;}
	.st110{fill:none;stroke:#26CEBF;stroke-width:0.6;stroke-linecap:round;stroke-linejoin:round;stroke-miterlimit:10;}
	.st111{fill:none;stroke:#142130;stroke-width:0.6;stroke-linecap:round;stroke-linejoin:round;}
	.st112{fill:none;stroke:#142130;stroke-width:0.6;stroke-linecap:round;stroke-linejoin:round;stroke-dasharray:1.9949,3.9897;}
	.st113{fill:none;stroke:#142130;stroke-width:0.6;stroke-linecap:round;stroke-linejoin:round;stroke-dasharray:2.029,4.058;}
	.st114{fill:none;stroke:#142130;stroke-width:0.5;stroke-linecap:round;stroke-linejoin:round;stroke-miterlimit:10;}
	.st115{fill:#BBBCBE;}
	.st116{fill:#142130;}
	
		.st117{fill:none;stroke:#142130;stroke-width:0.6;stroke-linecap:round;stroke-linejoin:round;stroke-miterlimit:10;stroke-dasharray:1,2;}
	.st118{fill:none;stroke:#DCDDE1;stroke-width:0.5;stroke-linecap:round;stroke-linejoin:round;stroke-miterlimit:10;}
	.st119{fill:none;stroke:#26CEBF;stroke-width:0.5;stroke-linecap:round;stroke-linejoin:round;stroke-miterlimit:10;}
	.st120{fill:none;stroke:#142130;stroke-width:0.5;stroke-linecap:round;stroke-linejoin:round;stroke-dasharray:1.9263,3.8527;}
	.st121{fill:none;stroke:#142130;stroke-width:0.5;stroke-linecap:round;stroke-linejoin:round;stroke-dasharray:2.0057,4.0114;}
	.st122{fill:#FFFFFF;stroke:#142130;stroke-width:0.5;stroke-linecap:round;stroke-linejoin:round;stroke-miterlimit:10;}
	.st123{fill:none;stroke:#142130;stroke-width:0.5;stroke-linecap:round;stroke-linejoin:round;stroke-dasharray:0.5;}
	.st124{fill:none;stroke:#142130;stroke-width:0.5;stroke-linecap:round;stroke-linejoin:round;stroke-dasharray:1.0506,2.1011;}
	.st125{fill:none;stroke:#142130;stroke-width:0.5;stroke-linecap:round;stroke-linejoin:round;stroke-dasharray:1.0414,2.0829;}
	.st126{fill:none;stroke:#142130;stroke-width:0.5;stroke-linecap:round;stroke-linejoin:round;stroke-dasharray:1.05,2.0999;}
	.st127{fill:none;stroke:#142130;stroke-width:0.5;stroke-linecap:round;stroke-linejoin:round;stroke-dasharray:1.0319,2.0638;}
	.st128{fill:none;stroke:#142130;stroke-width:0.5;stroke-linecap:round;stroke-linejoin:round;stroke-dasharray:1.0572,2.1143;}
	.st129{fill:#00D50F;}
	.st130{fill:url(#SVGID_33_);}
	.st131{fill:url(#SVGID_34_);}
	.st132{fill:none;stroke:#142130;stroke-width:0.5;stroke-linecap:round;stroke-linejoin:round;stroke-dasharray:1.0014,2.0029;}
	.st133{fill:none;stroke:#142130;stroke-width:0.5;stroke-linecap:round;stroke-linejoin:round;stroke-dasharray:1.023,2.046;}
	.st134{fill:none;stroke:#142130;stroke-width:0.5;stroke-linecap:round;stroke-linejoin:round;stroke-dasharray:1,2;}
</style>
<g id="Layer_2">
</g>
<g id="Layer_1">
</g>
<g id="Layer_3">
	<g>
		<path class="st3" d="M96.2,23.2c-15.1,0-28.6,9.4-34,23.4c10.6,7.2,17.5,19.3,17.5,33c0,5.9-1.3,11.5-3.7,16.6h20.2
			c20.1,0,36.5-16.4,36.5-36.5C132.7,39.6,116.3,23.2,96.2,23.2z"/>
		<path class="st3" d="M456.9,52.1c-9.8,0-15.9,7.3-15.9,18.4v0.7c0,11.1,6.1,18.3,15.9,18.3c9.8,0,15.9-7.4,15.9-18.3v-0.7
			C472.8,59.4,466.6,52.1,456.9,52.1z"/>
		<path class="st3" d="M562.4,52.1c-9.7,0-15.5,6.8-15.5,18.6v0.7c0,12.3,6.6,18.2,14.8,18.2c9,0,16.1-6,16.1-18.4v-0.7
			C577.9,58,571.9,52.1,562.4,52.1z"/>
		<path class="st25" d="M96.2,0C70.2,0,48,16.6,39.8,39.8l0,0C17.8,39.8,0,57.7,0,79.7c0,22,17.8,39.8,39.8,39.8h56.3
			c33,0,59.7-26.7,59.7-59.7C155.9,26.7,129.2,0,96.2,0z M96.2,96.3H76c2.3-5.1,3.7-10.7,3.7-16.6c0-13.7-6.9-25.8-17.5-33
			c5.4-14,18.9-23.4,34-23.4c20.1,0,36.5,16.4,36.5,36.5C132.7,79.9,116.3,96.3,96.2,96.3z"/>
		<rect x="191.3" y="28.6" class="st25" width="15.2" height="66.6"/>
		<polygon class="st25" points="233.4,66.9 256.2,66.9 256.2,55.9 233.4,55.9 233.4,40.4 261.9,40.4 261.9,28.6 218.5,28.6 
			218.5,95.2 263.3,95.2 263.3,83.5 233.4,83.5 		"/>
		<polygon class="st25" points="326,28.6 310.6,28.6 298,50.8 285.3,28.6 268.3,28.6 287.8,61 266.7,95.2 282.2,95.2 296.5,70.5 
			310.9,95.2 328.1,95.2 307,60.6 		"/>
		<path class="st25" d="M378.9,89.5c-14.3,0-22.9-10.2-22.9-27.2v-0.7c0-16.8,9.2-27.5,23-27.5c11.4,0,17.2,5.2,18.9,15.4h8
			c-1.4-14.4-13.1-21.8-27-21.8c-18.1,0-31.3,14.3-31.3,34v0.7c0,20.5,11.8,33.7,31.1,33.7c14.9,0,25.5-7.5,27.8-22.9h-7.5
			C397.4,84,389.8,89.5,378.9,89.5z"/>
		<rect x="415.7" y="23.2" class="st25" width="7.8" height="72"/>
		<path class="st25" d="M456.9,45.7c-13.8,0-23.9,10.2-23.9,24.9v0.7c0,14.2,10,24.8,23.8,24.8c13.9,0,24-10.2,24-24.9v-0.7
			C480.8,55.8,470.7,45.7,456.9,45.7z M472.8,71.3c0,11-6.1,18.3-15.9,18.3c-9.9,0-15.9-7.3-15.9-18.3v-0.7
			c0-11.2,6.1-18.4,15.9-18.4c9.7,0,15.9,7.3,15.9,18.5V71.3z"/>
		<path class="st25" d="M522,76c0,8.8-6.5,13.3-13.4,13.3c-7.6,0-11.3-3.8-11.3-12.4V46.5h-7.7v30.8c0,13.4,7.3,18.7,17,18.7
			c7.8,0,13.2-4,15.5-8.6v7.7h7.7V46.5H522V76z"/>
		<path class="st25" d="M577.6,23.2v31.1c-2.8-4.7-7.8-8.7-15.9-8.7c-13.4,0-22.7,10.5-22.7,25.4v0.7c0,15.2,9.2,24.2,22,24.2
			c7.1,0,13.9-4.5,16.7-9.2v8.4h7.7v-72H577.6z M577.9,71.2c0,12.5-7.1,18.4-16.1,18.4c-8.2,0-14.8-5.9-14.8-18.2v-0.7
			c0-11.8,5.8-18.6,15.5-18.6c9.5,0,15.5,5.9,15.5,18.4V71.2z"/>
	</g>
</g>
</svg>
